# 3ds Max Wavefront OBJ Exporter v0.99 - (c)2007 guruware
# File Created: 05.06.2022 20:57:09

mtllib Whiteboard.mtl

#
# object ??_??2
#

v  -605.0000 5.0000 305.0000
v  -595.0000 5.0000 -295.0000
v  -605.0000 5.0000 -305.0000
v  595.0000 5.0000 -295.0000
v  605.0000 5.0000 -305.0000
v  605.0000 5.0000 305.0000
v  595.0000 5.0000 295.0000
v  -595.0000 5.0000 295.0000
v  -605.0000 -5.0000 -305.0000
v  605.0000 -5.0000 -305.0000
v  -605.0000 -5.0000 305.0000
v  605.0000 -5.0000 305.0000
v  -595.0000 2.0000 -295.0000
v  -595.0000 2.0000 295.0000
v  595.0000 2.0000 295.0000
v  595.0000 2.0000 -295.0000
# 16 vertices

vn 0.0000 0.1000 -0.0000
vn 0.0000 -0.1000 -0.0000
vn -0.1000 0.0000 0.0000
vn 0.0000 0.0000 0.1000
vn 0.1000 0.0000 -0.0000
vn -0.0000 -0.0000 -0.1000
vn 0.0000 0.0000 -0.1000
vn -0.1000 0.0000 -0.0000
# 8 vertex normals

vt -60.5000 -30.5000 0.0000
vt -59.5000 29.5000 0.0000
vt -60.5000 30.5000 0.0000
vt 59.5000 29.5000 0.0000
vt 60.5000 30.5000 0.0000
vt 60.5000 -30.5000 0.0000
vt 59.5000 -29.5000 0.0000
vt -59.5000 -29.5000 0.0000
vt -1.0000 -61.0000 0.0000
vt 0.0000 -61.0000 0.0000
vt -1.0000 0.0000 0.0000
vt -0.0000 0.0000 0.0000
vt 1.0000 121.0000 0.0000
vt -0.0000 121.0000 0.0000
vt 1.0000 0.0000 0.0000
vt 1.0000 -61.0000 0.0000
vt -0.0000 -61.0000 0.0000
vt -1.0000 121.0000 0.0000
vt 0.3000 0.0000 0.0000
vt 0.0000 0.0000 0.0000
vt 0.3000 -59.0000 0.0000
vt -0.0000 -59.0000 0.0000
vt -0.3000 0.0000 0.0000
vt -0.3000 119.0000 0.0000
vt 0.0000 119.0000 0.0000
vt -0.3000 -59.0000 0.0000
vt 0.0000 -59.0000 0.0000
vt 0.3000 119.0000 0.0000
# 28 texture coords

o ??_??2
g ??_??2
usemtl wire_127127127
s off
f 1/1/1 2/2/1 3/3/1 
f 3/3/1 2/2/1 4/4/1 
f 3/3/1 4/4/1 5/5/1 
f 5/5/1 4/4/1 6/6/1 
f 6/6/1 4/4/1 7/7/1 
f 6/6/1 7/7/1 8/8/1 
f 2/2/1 1/1/1 8/8/1 
f 8/8/1 1/1/1 6/6/1 
f 9/5/2 10/3/2 11/6/2 
f 11/6/2 10/3/2 12/1/2 
f 11/9/3 1/10/3 9/11/3 
f 9/11/3 1/10/3 3/12/3 
f 12/13/4 6/14/4 11/15/4 
f 11/15/4 6/14/4 1/12/4 
f 10/15/5 5/12/5 12/16/5 
f 12/16/5 5/12/5 6/17/5 
f 9/11/6 3/12/6 10/18/6 
f 10/18/6 3/12/6 5/14/6 
f 13/19/5 2/20/5 14/21/5 
f 14/21/5 2/20/5 8/22/5 
f 14/23/7 8/20/7 15/24/7 
f 15/24/7 8/20/7 7/25/7 
f 15/26/8 7/27/8 16/23/8 
f 16/23/8 7/27/8 4/20/8 
f 16/28/4 4/25/4 13/19/4 
f 13/19/4 4/25/4 2/20/4 
f 14/8/1 15/7/1 13/2/1 
f 13/2/1 15/7/1 16/4/1 
# 0 polygons - 28 triangles

