# 3ds Max Wavefront OBJ Exporter v0.99 - (c)2007 guruware
# File Created: 07.07.2022 23:40:30

mtllib Whiteboard_Word.mtl

#
# object ??_??2
#

v  -6.0500 0.0500 3.0500
v  -5.9500 0.0500 -2.9500
v  -6.0500 0.0500 -3.0500
v  5.9500 0.0500 -2.9500
v  6.0500 0.0500 -3.0500
v  6.0500 0.0500 3.0500
v  5.9500 0.0500 2.9500
v  -5.9500 0.0500 2.9500
v  -6.0500 -0.0500 -3.0500
v  6.0500 -0.0500 -3.0500
v  -6.0500 -0.0500 3.0500
v  6.0500 -0.0500 3.0500
v  -5.9500 0.0200 -2.9500
v  -5.9500 0.0200 2.9500
v  5.9500 0.0200 2.9500
v  5.9500 0.0200 -2.9500
# 16 vertices

vn 0.0000 0.1000 -0.0000
vn 0.0000 -0.1000 -0.0000
vn -0.1000 0.0000 0.0000
vn 0.0000 0.0000 0.1000
vn 0.1000 0.0000 -0.0000
vn -0.0000 -0.0000 -0.1000
vn 0.0000 0.0000 -0.1000
vn -0.1000 0.0000 -0.0000
# 8 vertex normals

vt -0.0000 0.0000 1.0000
vt 0.0083 0.9836 1.0000
vt 0.0000 1.0000 1.0000
vt 0.9917 0.9836 1.0000
vt 1.0000 1.0000 1.0000
vt 1.0000 0.0000 1.0000
vt 0.9917 0.0164 1.0000
vt 0.0083 0.0164 1.0000
vt 0.0000 1.0000 0.0000
vt 1.0000 1.0000 0.0000
vt -0.0000 0.0000 0.0000
vt 1.0000 0.0000 0.0000
vt 0.0083 0.9836 0.7000
vt 0.0083 0.0164 0.7000
vt 0.9917 0.0164 0.7000
vt 0.9917 0.9836 0.7000
# 16 texture coords

o ??_??2
g ??_??2
usemtl 02___Default
s off
f 1/1/1 2/2/1 3/3/1 
f 3/3/1 2/2/1 4/4/1 
f 3/3/1 4/4/1 5/5/1 
f 5/5/1 4/4/1 6/6/1 
f 6/6/1 4/4/1 7/7/1 
f 6/6/1 7/7/1 8/8/1 
f 2/2/1 1/1/1 8/8/1 
f 8/8/1 1/1/1 6/6/1 
f 9/9/2 10/10/2 11/11/2 
f 11/11/2 10/10/2 12/12/2 
f 11/11/3 1/1/3 9/9/3 
f 9/9/3 1/1/3 3/3/3 
f 12/12/4 6/6/4 11/11/4 
f 11/11/4 6/6/4 1/1/4 
f 10/10/5 5/5/5 12/12/5 
f 12/12/5 5/5/5 6/6/5 
f 9/9/6 3/3/6 10/10/6 
f 10/10/6 3/3/6 5/5/6 
f 13/13/5 2/2/5 14/14/5 
f 14/14/5 2/2/5 8/8/5 
f 14/14/7 8/8/7 15/15/7 
f 15/15/7 8/8/7 7/7/7 
f 15/15/8 7/7/8 16/16/8 
f 16/16/8 7/7/8 4/4/8 
f 16/16/4 4/4/4 13/13/4 
f 13/13/4 4/4/4 2/2/4 
f 14/14/1 15/15/1 13/13/1 
f 13/13/1 15/15/1 16/16/1 
# 0 polygons - 28 triangles

